<?xml version="1.0" standalone="no"?>
<!DOCTYPE svg PUBLIC "-//W3C//DTD SVG 20010904//EN"
 "http://www.w3.org/TR/2001/REC-SVG-20010904/DTD/svg10.dtd">
<svg version="1.0" xmlns="http://www.w3.org/2000/svg"
 width="460.000000pt" height="460.000000pt" viewBox="0 0 460.000000 460.000000"
 preserveAspectRatio="xMidYMid meet">
<metadata>
Created by potrace 1.11, written by Peter Selinger 2001-2013
</metadata>
<g transform="translate(0.000000,460.000000) scale(0.100000,-0.100000)"
fill="#000000" stroke="none">
<path d="M2430 4416 c9 -26 -8 -53 -25 -38 -5 4 -5 1 -1 -5 4 -8 2 -13 -5 -13
-7 0 -2 -9 10 -19 15 -13 20 -27 17 -45 -3 -15 -1 -24 5 -21 5 4 7 10 4 15 -3
5 -1 11 4 14 5 3 7 -8 6 -24 -2 -25 0 -28 11 -19 9 8 14 8 14 1 0 -6 -5 -14
-10 -17 -8 -5 -7 -11 1 -21 9 -11 9 -14 0 -14 -7 0 -9 -5 -5 -11 5 -8 9 -8 14
1 6 10 12 10 26 0 16 -10 16 -11 2 -6 -10 3 -18 1 -18 -5 0 -6 -7 -8 -15 -5
-9 3 -18 -1 -21 -9 -4 -10 -11 -12 -23 -6 -9 6 -23 6 -31 1 -7 -4 -19 -6 -27
-3 -7 3 -13 -1 -13 -8 0 -11 -2 -11 -10 1 -8 12 -10 12 -15 -3 -6 -13 -11 -15
-27 -6 -12 7 -18 7 -14 1 9 -15 -20 -22 -34 -9 -9 9 -11 9 -7 1 8 -14 -15 -24
-43 -19 -11 2 -20 -1 -20 -7 0 -5 -7 -7 -16 -4 -8 3 -13 2 -11 -2 3 -4 -7 -16
-22 -27 -18 -13 -22 -14 -13 -3 9 11 10 18 2 23 -6 4 -10 3 -9 -2 4 -16 -13
-42 -25 -37 -6 2 -22 -9 -35 -26 -13 -18 -29 -29 -36 -26 -7 2 -19 -3 -27 -12
-12 -15 -11 -16 5 -3 15 12 17 11 17 -3 0 -9 -7 -19 -15 -22 -8 -4 -15 -13
-15 -21 0 -8 -4 -12 -9 -8 -5 3 -12 1 -15 -4 -4 -5 -1 -13 5 -17 8 -5 9 -3 4
6 -5 9 -4 11 3 6 15 -9 15 -11 -5 -27 -14 -12 -16 -12 -8 0 5 10 4 12 -3 7 -7
-4 -12 -18 -12 -32 0 -14 -4 -22 -10 -19 -6 3 -7 -1 -4 -9 4 -10 -3 -20 -20
-27 -14 -7 -26 -16 -26 -21 0 -5 -4 -6 -10 -3 -6 3 -10 -4 -10 -17 0 -14 -3
-19 -8 -11 -9 14 -26 5 -35 -20 -4 -10 -15 -17 -24 -15 -10 2 -18 -3 -18 -10
0 -16 -26 -32 -40 -25 -5 3 -5 0 2 -7 10 -11 7 -18 -13 -37 -14 -13 -23 -27
-19 -32 3 -5 -5 -18 -18 -28 -13 -10 -24 -22 -24 -26 -1 -5 -5 -12 -9 -15 -4
-4 -4 -2 0 5 3 6 3 14 -2 17 -9 5 -11 -2 -15 -48 -1 -18 -5 -22 -14 -14 -10 8
-13 3 -13 -21 0 -23 -6 -34 -22 -41 -13 -5 -18 -9 -12 -9 17 -1 12 -32 -7 -44
-16 -10 -16 -12 -1 -24 16 -12 16 -13 0 -7 -13 4 -18 1 -18 -11 0 -10 5 -14
13 -10 6 4 2 -2 -11 -12 -17 -14 -21 -24 -16 -38 7 -18 6 -19 -12 -5 -19 14
-19 14 -1 -7 12 -14 15 -23 7 -28 -5 -3 -8 -11 -5 -16 4 -5 -1 -12 -9 -15 -9
-3 -13 -10 -10 -15 3 -5 0 -9 -5 -9 -6 0 -11 -13 -11 -30 0 -16 -5 -30 -11
-30 -5 0 -7 5 -3 12 4 6 3 8 -4 5 -5 -4 -8 -16 -5 -27 3 -12 0 -20 -8 -20 -8
0 -5 -6 7 -16 10 -8 14 -13 7 -10 -7 4 -12 -1 -12 -11 -1 -41 -5 -51 -17 -46
-9 3 -12 -2 -9 -16 2 -12 -1 -21 -8 -22 -7 0 -3 -4 8 -9 18 -8 18 -9 2 -9 -14
-1 -17 -7 -13 -31 2 -16 0 -33 -5 -36 -5 -3 -8 -12 -7 -19 2 -8 -6 -21 -17
-30 -11 -9 -15 -14 -9 -11 7 3 14 -1 17 -9 4 -10 1 -12 -10 -8 -13 5 -14 3 -3
-17 8 -15 8 -20 1 -16 -6 4 -11 0 -11 -8 0 -9 -4 -16 -10 -16 -5 0 -7 8 -4 18
5 14 4 15 -5 2 -8 -11 -7 -18 4 -26 17 -13 21 -29 4 -19 -6 4 -9 1 -8 -6 1 -8
-3 -26 -9 -41 -6 -15 -9 -36 -6 -45 5 -17 5 -17 -6 0 -6 9 -8 22 -4 29 4 7 3
8 -5 4 -6 -4 -9 -16 -6 -27 12 -37 14 -79 4 -79 -6 0 -8 4 -4 9 3 5 2 12 -3
15 -13 8 -11 -28 2 -36 7 -5 6 -8 -4 -8 -13 0 -13 -1 0 -10 13 -8 12 -10 -4
-10 -15 0 -16 -3 -6 -15 7 -8 17 -12 24 -9 6 4 -1 -6 -17 -20 -15 -15 -25 -31
-22 -36 3 -4 0 -11 -5 -13 -6 -3 -5 -4 2 -3 7 2 13 9 13 16 0 7 7 15 15 17 13
4 13 3 0 -6 -8 -6 -11 -11 -6 -11 5 0 1 -9 -9 -20 -17 -19 -17 -20 1 -20 16 0
16 -2 4 -10 -9 -6 -20 -5 -30 3 -13 11 -13 10 -1 -6 12 -15 12 -20 2 -26 -10
-6 -9 -10 4 -14 9 -4 14 -3 11 2 -3 5 2 15 12 22 15 12 16 12 6 -1 -6 -8 -10
-25 -9 -37 1 -19 -1 -21 -14 -10 -12 9 -13 9 -7 0 4 -8 2 -13 -6 -13 -8 0 -6
-5 5 -11 14 -8 16 -14 6 -25 -6 -8 -8 -14 -4 -14 4 0 2 -6 -4 -13 -6 -8 -8
-17 -4 -20 3 -4 -2 -7 -13 -7 -16 0 -17 -2 -4 -10 8 -5 11 -10 6 -10 -5 0 -3
-6 3 -14 9 -11 9 -16 0 -22 -8 -4 -9 -3 -5 4 4 7 2 12 -3 12 -17 0 -13 -28 6
-40 12 -8 13 -10 3 -7 -8 2 -23 -4 -33 -13 -17 -17 -17 -18 -1 -17 9 1 18 -4
20 -11 1 -7 0 -8 -3 -2 -2 5 -9 7 -14 4 -6 -3 -5 -12 3 -22 10 -12 10 -14 0
-8 -8 5 -12 1 -12 -10 0 -10 -3 -14 -7 -11 -11 11 -32 -14 -26 -30 4 -11 2
-14 -5 -9 -6 3 -15 -1 -20 -11 -8 -13 -13 -14 -24 -6 -10 8 -18 9 -28 1 -12
-8 -12 -9 3 -4 9 3 17 1 17 -4 0 -17 -25 -11 -42 9 -9 11 -14 21 -12 23 2 3
-2 5 -8 6 -7 0 -25 3 -40 5 -17 3 -25 0 -21 -6 4 -6 0 -8 -9 -4 -11 4 -18 -1
-21 -14 -4 -13 -10 -17 -23 -12 -13 5 -15 3 -9 -8 7 -11 5 -11 -10 1 -15 12
-17 12 -10 1 6 -11 4 -13 -9 -8 -11 5 -15 3 -10 -5 5 -7 0 -9 -14 -6 -12 4
-20 2 -16 -3 5 -8 -9 -13 -28 -10 -5 0 -8 -6 -8 -14 0 -9 -6 -12 -17 -8 -11 4
-14 3 -9 -5 4 -7 2 -12 -4 -12 -6 0 -8 -5 -4 -13 5 -8 2 -7 -9 2 -16 12 -17
12 -10 -5 6 -17 5 -18 -12 -4 -10 8 -16 10 -12 4 6 -11 -26 -28 -46 -25 -5 1
-6 -3 -2 -9 3 -6 -3 -22 -14 -36 -12 -15 -21 -23 -21 -18 0 4 -6 0 -13 -11 -9
-11 -19 -15 -27 -10 -8 5 -11 4 -7 -2 4 -6 0 -16 -7 -22 -10 -9 -16 -9 -21 -1
-5 8 -12 5 -22 -7 -9 -11 -12 -12 -8 -3 4 8 -3 4 -15 -10 -12 -14 -18 -19 -14
-11 5 9 3 12 -4 7 -7 -4 -12 -14 -12 -22 0 -8 -4 -14 -9 -14 -5 0 -13 -9 -16
-20 -4 -11 -10 -18 -14 -16 -4 3 -8 -4 -8 -15 -1 -11 3 -17 9 -13 6 4 9 1 6
-7 -3 -8 -11 -13 -17 -11 -7 1 -9 -3 -5 -9 3 -6 0 -15 -7 -20 -9 -6 -4 -8 16
-6 25 2 30 -2 31 -21 1 -12 4 -26 8 -29 3 -4 -1 -14 -9 -23 -13 -14 -13 -17 0
-17 8 0 12 4 9 9 -3 4 0 8 5 8 14 0 14 -17 1 -25 -5 -3 -10 -11 -10 -17 0 -6
6 -6 15 2 9 7 18 10 22 6 3 -3 1 -6 -5 -6 -7 0 -12 -9 -12 -20 0 -11 5 -20 10
-20 6 0 10 -5 10 -11 0 -5 -4 -8 -8 -5 -5 3 -9 -2 -9 -10 0 -9 12 -20 26 -26
26 -9 26 -10 6 -25 -19 -15 -19 -15 4 -8 16 5 21 4 17 -4 -4 -6 -2 -20 4 -31
8 -16 8 -18 -4 -14 -8 3 -17 0 -22 -7 -4 -8 -3 -10 4 -5 7 4 12 2 12 -4 0 -6
5 -8 11 -4 7 4 10 1 7 -7 -3 -8 -11 -13 -17 -11 -7 1 -10 -2 -6 -7 3 -6 13 -7
21 -4 14 5 15 3 5 -14 -8 -17 -7 -24 6 -34 9 -8 14 -9 10 -3 -4 7 0 14 8 17
10 4 12 1 8 -11 -4 -9 -11 -20 -16 -23 -5 -3 -1 -9 8 -12 9 -4 13 -3 10 3 -3
6 -1 10 4 10 6 0 11 -7 11 -16 0 -9 5 -12 12 -8 8 5 9 2 5 -9 -3 -9 -2 -19 4
-22 5 -4 7 -10 4 -15 -3 -5 4 -11 15 -15 20 -6 24 -16 20 -44 -1 -13 1 -13 15
-1 12 10 19 10 27 2 8 -8 7 -13 -5 -18 -9 -3 -17 -10 -17 -15 0 -4 7 -6 15 -3
11 5 13 2 8 -12 -4 -11 -2 -15 4 -11 5 4 19 0 29 -8 18 -13 18 -14 -4 -8 -12
3 -22 1 -22 -4 0 -5 8 -9 18 -10 44 -3 57 -11 56 -32 -1 -11 2 -21 7 -21 10 0
7 -36 -4 -46 -3 -4 -5 3 -2 15 2 11 0 21 -6 21 -9 0 -6 -41 6 -60 4 -6 -1 -7
-11 -3 -14 5 -16 3 -10 -12 4 -11 2 -22 -6 -27 -10 -6 -10 -10 2 -19 12 -9 10
-10 -8 -6 -20 5 -21 3 -10 -11 11 -14 10 -15 -7 -8 -11 4 -16 4 -12 0 4 -4 2
-13 -4 -21 -6 -7 -8 -13 -3 -13 5 0 2 -5 -6 -11 -13 -9 -13 -10 0 -6 8 2 15 9
15 14 0 6 3 14 7 18 9 9 5 -16 -5 -32 -5 -7 -5 -17 -2 -23 3 -5 0 -7 -7 -5
-10 4 -14 -7 -15 -41 -3 -67 -84 -186 -115 -168 -10 6 -11 5 -1 -8 14 -17 8
-29 -12 -22 -7 3 -15 -4 -18 -17 -4 -15 -11 -20 -23 -15 -14 5 -15 4 -4 -9 10
-13 9 -15 -9 -15 -15 0 -21 -5 -19 -18 2 -11 -5 -18 -20 -20 -15 -2 -22 -9
-18 -17 7 -19 -5 -27 -21 -13 -11 8 -12 7 -8 -5 4 -10 -4 -21 -23 -32 -16 -10
-37 -31 -46 -47 -11 -17 -22 -26 -29 -21 -8 5 -8 2 1 -9 10 -13 9 -16 -8 -21
-14 -3 -20 -12 -18 -24 2 -10 -2 -17 -9 -16 -7 2 -15 -8 -19 -22 -5 -21 -9
-23 -20 -14 -12 9 -13 9 -9 -4 4 -8 1 -18 -6 -23 -8 -5 -10 -3 -4 7 8 12 6 12
-8 0 -18 -15 -23 -26 -7 -16 6 3 10 2 10 -3 0 -5 -10 -14 -22 -21 -23 -11 -23
-11 2 -5 l25 7 -25 -21 c-20 -18 -22 -23 -11 -31 11 -7 9 -10 -10 -14 -13 -2
956 -5 2154 -6 l2178 -1 -2 319 c-1 292 -2 319 -18 314 -13 -5 -14 -3 -3 8 6
7 12 18 12 24 0 5 -4 4 -9 -3 -6 -10 -10 -9 -14 7 -3 12 -1 21 4 21 5 0 9 5 9
11 0 5 -4 8 -9 4 -5 -3 -12 -1 -15 4 -4 5 2 12 11 14 17 4 17 5 1 6 -11 1 -15
6 -11 16 3 9 -3 25 -12 35 -10 11 -15 20 -10 20 4 0 1 8 -6 17 -9 11 -10 14
-2 9 9 -5 11 -2 7 8 -3 9 -11 16 -18 16 -6 0 -4 5 4 10 13 8 13 10 -1 10 -9 0
-23 8 -30 18 -13 15 -12 16 4 3 15 -12 17 -12 11 3 -3 9 -15 16 -27 16 -11 0
-17 3 -14 7 4 3 -2 12 -13 20 -11 8 -20 20 -20 27 0 8 -7 17 -16 20 -9 4 -14
13 -10 22 3 8 2 12 -4 9 -6 -3 -10 -1 -10 5 0 6 -4 8 -10 5 -6 -3 -10 4 -10
17 0 18 -2 20 -10 8 -8 -13 -10 -12 -10 3 0 10 -4 15 -10 12 -5 -3 -10 -2 -10
4 0 5 -10 13 -21 16 -16 5 -18 9 -9 15 9 5 5 8 -11 8 -23 -1 -89 21 -99 33
-12 13 -40 18 -40 6 0 -8 -4 -6 -10 3 -7 11 -10 11 -10 2 0 -10 -5 -10 -22 -1
-13 7 -25 12 -28 12 -3 -1 -7 1 -10 4 -3 4 2 2 10 -2 13 -8 13 -7 1 8 -14 18
-26 23 -16 8 3 -5 1 -12 -5 -16 -5 -3 -10 -1 -10 5 0 6 -4 8 -10 5 -5 -3 -10
2 -10 12 0 15 -2 16 -10 3 -7 -12 -10 -12 -10 -1 0 7 -6 11 -15 7 -8 -3 -15
-1 -15 5 0 6 -7 9 -15 6 -8 -4 -17 -1 -21 5 -5 7 -2 8 6 3 9 -6 11 -4 5 4 -5
9 -10 10 -18 2 -6 -6 -16 -11 -22 -11 -5 0 -3 5 5 10 13 8 12 10 -2 10 -10 0
-18 5 -18 10 0 6 -7 10 -15 10 -8 0 -15 5 -15 11 0 5 -5 7 -11 3 -8 -5 -8 -1
0 14 13 25 14 35 2 28 -5 -3 -12 1 -15 10 -4 10 -2 13 6 8 7 -4 8 -3 4 5 -4 6
-15 10 -24 9 -9 -2 -17 4 -18 12 -3 36 -5 41 -13 36 -14 -9 -20 16 -9 38 7 12
7 16 0 12 -15 -9 -21 42 -6 55 8 6 12 15 9 19 -3 5 -1 11 5 15 5 3 10 1 10 -6
0 -7 3 -9 6 -6 4 4 1 13 -6 22 -8 10 -9 15 -1 15 6 0 11 5 11 11 0 5 -4 8 -8
5 -4 -2 -8 4 -8 15 0 10 4 19 8 19 5 0 4 10 -3 21 -8 15 -8 19 0 15 6 -4 11
-3 11 3 0 5 -5 13 -11 16 -6 5 -5 11 5 18 12 9 13 16 5 27 -9 13 -10 12 -5 -3
3 -10 2 -15 -3 -12 -15 9 -9 46 7 40 8 -3 10 0 6 7 -10 16 -14 79 -5 73 4 -2
8 2 8 10 0 8 -7 15 -16 15 -12 0 -12 3 -3 12 14 14 16 32 4 24 -5 -3 -9 1 -9
9 0 8 7 15 14 15 8 0 11 5 8 10 -4 6 -12 7 -18 3 -9 -5 -9 -3 -1 8 6 8 10 22
9 32 -2 9 0 17 5 17 4 0 10 7 14 15 3 8 2 14 -2 14 -21 -3 -23 3 -6 23 10 12
14 18 7 15 -6 -4 -14 -3 -18 3 -3 5 0 10 7 10 10 0 10 2 -1 9 -9 6 -10 10 -2
16 9 5 9 10 1 20 -8 10 -8 19 0 34 8 16 8 21 -1 21 -8 0 -7 5 2 17 12 14 12
16 0 9 -9 -6 -12 -5 -9 5 3 8 1 22 -4 32 -5 9 -5 17 0 17 5 0 8 19 7 43 -1 23
3 48 8 55 6 8 6 12 -2 12 -6 0 -11 5 -11 11 0 5 4 8 8 5 5 -3 7 5 6 17 -1 12
-3 26 -3 30 -1 5 -5 5 -11 2 -6 -3 -7 1 -4 9 3 9 11 13 18 9 8 -5 8 -3 0 8
-16 20 -17 99 -1 100 6 0 3 4 -8 9 -11 5 -14 9 -7 9 8 1 10 6 6 13 -4 6 -8 33
-8 59 -1 40 1 46 14 36 12 -10 12 -8 -1 13 -17 28 -14 64 4 54 7 -3 3 2 -7 10
-15 12 -16 16 -5 16 8 0 10 3 4 8 -5 4 -11 13 -13 21 -3 12 -1 12 15 0 17 -13
17 -13 0 14 -10 15 -13 27 -7 27 6 0 9 3 7 8 -3 4 -6 27 -8 52 -2 25 -8 48
-14 52 -6 5 -5 8 4 8 11 0 11 3 0 17 -12 14 -12 15 0 9 10 -7 12 -3 6 13 -4
15 -1 23 10 27 13 5 14 8 3 15 -11 7 -10 10 1 21 11 11 13 11 6 -1 -6 -10 -4
-12 5 -6 10 6 9 11 -5 22 -14 9 -15 13 -4 13 9 0 10 3 3 8 -12 8 -28 46 -16
38 4 -2 7 6 7 19 0 19 -3 21 -14 12 -12 -10 -14 -9 -8 5 4 11 0 21 -11 27 -14
8 -14 10 -2 11 11 0 12 2 3 8 -7 5 -14 20 -15 35 -1 15 -6 27 -11 27 -5 0 -7
13 -5 30 3 21 1 27 -7 20 -8 -7 -12 -5 -12 5 0 8 5 15 11 15 6 0 4 5 -4 10
-13 8 -13 10 -1 10 11 0 10 4 -5 16 -10 8 -13 13 -7 9 9 -4 11 -1 7 9 -3 9
-10 16 -15 16 -5 0 -9 9 -9 19 0 11 -4 22 -10 26 -5 3 -7 12 -4 19 3 7 -2 16
-10 19 -9 4 -16 14 -16 22 0 10 -5 13 -12 9 -8 -5 -9 -2 -5 10 4 9 3 14 -2 11
-5 -3 -13 0 -17 6 -3 6 -1 15 6 19 8 5 7 9 -5 13 -9 4 -13 3 -10 -3 3 -6 1
-10 -6 -10 -6 0 -9 8 -6 20 3 11 0 20 -5 20 -7 0 -6 5 1 14 9 11 9 16 0 22 -8
4 -9 3 -5 -4 10 -16 -2 -15 -19 2 -8 7 -11 16 -8 19 3 4 -4 5 -15 2 -12 -2
-27 4 -34 13 -12 16 -11 16 7 2 19 -14 19 -14 6 2 -7 10 -17 15 -22 12 -18
-11 -30 7 -17 24 9 11 5 10 -17 -4 -16 -10 -26 -14 -22 -8 9 16 -40 67 -58 60
-10 -3 -15 1 -16 12 0 14 -2 14 -9 -3 -6 -14 -9 -15 -9 -5 -1 8 -12 24 -26 34
-13 10 -22 22 -20 26 3 5 -6 7 -20 5 -14 -1 -25 1 -25 6 0 5 -7 6 -15 3 -11
-5 -13 -2 -8 12 5 14 3 16 -12 10 -11 -4 -16 -4 -12 0 4 4 -1 13 -11 21 -9 8
-11 11 -3 7 9 -5 12 -3 7 4 -4 7 -16 12 -27 12 -11 0 -17 5 -14 10 3 6 0 10
-9 10 -8 0 -17 6 -19 13 -4 10 -6 10 -6 0 -1 -7 -6 -13 -12 -13 -6 0 -8 7 -5
16 5 14 4 15 -8 5 -12 -10 -14 -8 -12 13 2 15 -1 26 -7 26 -5 0 -4 6 2 14 14
16 4 25 -21 21 -10 -2 -18 2 -18 8 0 7 -4 6 -10 -3 -7 -12 -9 -10 -7 7 0 12 4
20 8 17 4 -2 10 0 14 6 4 6 12 7 18 3 18 -11 37 -12 37 -3 0 5 -6 11 -12 13
-7 3 4 4 24 3 22 -1 34 2 31 8 -4 5 0 7 9 3 9 -3 25 1 37 9 12 9 27 12 34 7
21 -13 38 -12 44 4 5 12 7 12 14 1 7 -10 9 -11 9 0 0 8 5 10 12 6 8 -5 9 -1 5
12 -6 17 -6 17 6 2 12 -15 14 -15 25 0 10 15 11 15 6 -3 -5 -19 -5 -19 9 -3 8
10 18 14 22 10 5 -4 5 1 2 11 -8 21 -3 22 17 1 14 -13 16 -14 16 0 0 8 5 18
12 22 7 5 9 2 4 -7 -4 -8 -1 -6 7 4 15 18 12 61 -4 51 -5 -3 -9 3 -9 13 0 15
-2 16 -10 3 -8 -12 -10 -12 -10 5 0 17 -2 17 -10 5 -7 -11 -10 -11 -10 -2 0 7
-8 12 -17 11 -43 -4 -64 1 -57 14 5 8 2 8 -9 -2 -14 -11 -17 -11 -17 0 0 11
-2 11 -10 -1 -9 -13 -10 -13 -10 0 0 9 -3 11 -8 5 -8 -11 -44 -17 -37 -6 2 4
-2 8 -10 8 -8 0 -12 -4 -9 -8 2 -4 -4 -8 -13 -8 -10 0 -27 -1 -38 -4 -11 -2
-23 1 -27 7 -5 7 -8 4 -8 -6 0 -10 -5 -18 -11 -18 -5 0 -8 4 -5 8 3 5 -1 9 -9
9 -8 0 -13 -5 -12 -11 1 -6 -4 -10 -12 -8 -8 2 -18 -3 -22 -10 -5 -7 -9 -8 -9
-2 0 6 -7 11 -15 11 -8 0 -12 -5 -8 -10 3 -5 -3 -7 -13 -5 -11 2 -25 -3 -31
-12 -11 -13 -14 -13 -23 0 -8 12 -10 12 -10 1 0 -9 -8 -5 -22 10 -16 18 -19
19 -15 6 5 -13 3 -17 -5 -14 -7 2 -12 11 -12 20 1 9 -1 16 -5 15 -19 -2 -32 4
-52 25 -12 12 -19 16 -15 10 5 -9 2 -11 -8 -7 -9 3 -16 10 -16 16 0 5 -4 6
-10 3 -5 -3 -10 0 -10 7 0 9 -3 9 -10 -2 -8 -12 -10 -12 -11 5 0 11 -3 14 -6
7 -4 -9 -10 -7 -22 7 -10 12 -21 18 -25 14 -3 -3 -6 1 -6 10 0 10 -5 17 -11
17 -5 0 -7 -6 -3 -12 8 -14 -26 10 -37 26 -4 4 -10 3 -13 -3 -5 -8 -12 -7 -22
4 -9 8 -21 12 -27 8 -9 -5 -9 -3 0 8 10 12 8 15 -8 15 -10 0 -19 -4 -19 -9 0
-4 -5 -5 -10 -2 -6 4 -7 12 -4 18 5 9 4 9 -6 0 -10 -9 -17 -7 -33 8 -11 10
-27 19 -34 19 -7 0 -13 5 -13 12 0 6 -3 8 -6 5 -4 -3 -15 -2 -25 4 -17 9 -18
7 -9 -15z m20 -82 c0 -2 -9 0 -20 6 -11 6 -20 13 -20 16 0 2 9 0 20 -6 11 -6
20 -13 20 -16z m41 -112 c-7 -2 -18 1 -23 6 -8 8 -4 9 13 5 13 -4 18 -8 10
-11z m796 -125 c0 -8 -6 -14 -14 -14 -9 0 -10 4 -2 14 6 7 12 13 14 13 1 0 2
-6 2 -13z m-1730 -782 c0 -8 -4 -12 -9 -9 -4 3 -8 9 -8 15 0 5 4 9 8 9 5 0 9
-7 9 -15z m-332 -1255 c3 -5 -1 -10 -10 -10 -9 0 -13 5 -10 10 3 6 8 10 10 10
2 0 7 -4 10 -10z m18 -244 c9 -7 17 -17 17 -21 0 -4 -8 -1 -17 6 -15 13 -16
12 -11 -8 5 -17 2 -23 -10 -24 -11 0 -12 -2 -4 -6 6 -2 12 -12 12 -21 0 -15
-2 -15 -10 -2 -6 9 -10 10 -10 3 0 -6 -3 -19 -6 -27 -5 -12 -2 -15 12 -10 13
4 11 0 -6 -12 -14 -10 -28 -19 -32 -19 -3 0 -10 -4 -15 -9 -5 -5 -3 -6 5 -2 6
4 12 2 12 -3 0 -6 -7 -11 -16 -11 -10 0 -14 -6 -10 -15 3 -8 0 -14 -6 -12 -6
1 -13 -4 -16 -12 -3 -9 0 -11 8 -6 9 5 11 4 6 -3 -4 -7 -15 -12 -24 -12 -16
-1 -15 -2 1 -14 15 -12 16 -14 2 -20 -8 -3 -15 0 -15 6 0 6 -3 8 -6 5 -4 -4
-2 -12 4 -20 6 -7 7 -18 2 -27 -10 -16 -48 -21 -57 -7 -3 6 -1 7 5 3 7 -4 12
-2 12 3 0 6 -5 11 -11 11 -7 0 -10 12 -7 29 2 17 1 28 -4 25 -14 -9 -9 9 10
29 9 11 12 17 5 14 -6 -4 -14 -3 -17 1 -7 12 46 92 61 92 7 0 12 4 11 8 -2 5
15 26 37 47 22 21 33 35 25 31 -8 -4 -6 0 4 8 24 19 35 20 59 2z m-718 -176
c-3 -5 -12 -10 -18 -10 -7 0 -6 4 3 10 19 12 23 12 15 0z m125 -374 c0 -2 -8
-10 -17 -17 -16 -13 -17 -12 -4 4 13 16 21 21 21 13z m74 -118 c6 -4 7 -10 3
-14 -10 -10 -37 28 -29 40 3 6 8 3 10 -4 3 -8 10 -18 16 -22z m-234 -851 c0
-2 -12 -14 -27 -28 l-28 -24 24 28 c23 25 31 32 31 24z"/>
<path d="M1087 1523 c3 -7 6 -13 8 -13 2 0 5 6 8 13 3 8 -1 14 -8 14 -7 0 -11
-6 -8 -14z"/>
<path d="M2410 4400 c0 -5 5 -10 11 -10 5 0 7 5 4 10 -3 6 -8 10 -11 10 -2 0
-4 -4 -4 -10z"/>
<path d="M2397 4319 c7 -7 15 -10 18 -7 3 3 -2 9 -12 12 -14 6 -15 5 -6 -5z"/>
<path d="M2210 4140 c0 -5 5 -10 11 -10 5 0 7 5 4 10 -3 6 -8 10 -11 10 -2 0
-4 -4 -4 -10z"/>
<path d="M3225 4069 c-11 -16 -1 -19 13 -3 7 8 8 14 3 14 -5 0 -13 -5 -16 -11z"/>
<path d="M3075 4030 c-3 -5 -1 -10 4 -10 6 0 11 5 11 10 0 6 -2 10 -4 10 -3 0
-8 -4 -11 -10z"/>
<path d="M1676 3614 c-5 -14 -4 -15 9 -4 17 14 19 20 6 20 -5 0 -12 -7 -15
-16z"/>
<path d="M1585 3480 c-3 -5 -1 -10 4 -10 6 0 11 5 11 10 0 6 -2 10 -4 10 -3 0
-8 -4 -11 -10z"/>
<path d="M1560 3419 c0 -5 5 -7 10 -4 6 3 10 8 10 11 0 2 -4 4 -10 4 -5 0 -10
-5 -10 -11z"/>
<path d="M1400 2919 c0 -5 5 -7 10 -4 6 3 10 8 10 11 0 2 -4 4 -10 4 -5 0 -10
-5 -10 -11z"/>
<path d="M1380 2896 c0 -2 7 -7 16 -10 8 -3 12 -2 9 4 -6 10 -25 14 -25 6z"/>
<path d="M1336 2742 c-3 -5 1 -9 9 -9 8 0 12 4 9 9 -3 4 -7 8 -9 8 -2 0 -6 -4
-9 -8z"/>
<path d="M1250 2327 c0 -2 6 -10 14 -16 11 -9 16 -9 22 1 4 7 4 10 -1 6 -4 -4
-14 -3 -22 3 -7 6 -13 9 -13 6z"/>
<path d="M1256 2274 c-5 -14 -4 -15 9 -4 17 14 19 20 6 20 -5 0 -12 -7 -15
-16z"/>
<path d="M705 1870 c-4 -6 -11 -7 -17 -4 -7 4 -8 2 -4 -5 6 -9 11 -9 22 0 14
11 18 19 10 19 -3 0 -8 -5 -11 -10z"/>
<path d="M506 1593 c-6 -14 -5 -15 5 -6 7 7 10 15 7 18 -3 3 -9 -2 -12 -12z"/>
<path d="M500 1562 c0 -5 7 -9 15 -9 8 0 12 4 9 9 -3 4 -9 8 -15 8 -5 0 -9 -4
-9 -8z"/>
<path d="M3785 1481 c-3 -5 -2 -12 3 -15 5 -3 9 1 9 9 0 17 -3 19 -12 6z"/>
<path d="M827 963 c3 -7 8 -13 12 -13 4 0 8 6 8 13 0 8 -6 14 -13 14 -7 0 -10
-6 -7 -14z"/>
</g>
</svg>
